<?xml version="1.0" encoding="UTF-8" standalone="no"?>
<!DOCTYPE svg PUBLIC "-//W3C//DTD SVG 1.1//EN"
 "http://www.w3.org/Graphics/SVG/1.1/DTD/svg11.dtd">
<!-- Generated by graphviz version 5.0.0 (20220707.1540)
 -->
<!-- Title: dependencies Pages: 1 -->
<svg width="1876pt" height="247pt"
 viewBox="0.00 0.00 1876.00 246.80" xmlns="http://www.w3.org/2000/svg" xmlns:xlink="http://www.w3.org/1999/xlink">
<g id="graph0" class="graph" transform="scale(1 1) rotate(0) translate(4 242.8)">
<title>dependencies</title>
<polygon fill="white" stroke="transparent" points="-4,4 -4,-242.8 1872,-242.8 1872,4 -4,4"/>
<text text-anchor="middle" x="934" y="-8.2" font-family="sans-serif" font-size="14.00">dependencies</text>
<g id="clust1" class="cluster">
<title>cluster_SharedModule</title>
<polygon fill="none" stroke="black" stroke-dasharray="1,5" points="8,-32.8 8,-230.8 1860,-230.8 1860,-32.8 8,-32.8"/>
</g>
<g id="clust14" class="cluster">
<title>cluster_SharedModule_imports</title>
<polygon fill="none" stroke="black" points="1750,-40.8 1750,-92.8 1852,-92.8 1852,-40.8 1750,-40.8"/>
</g>
<g id="clust2" class="cluster">
<title>cluster_SharedModule_declarations</title>
<polygon fill="none" stroke="black" points="16,-40.8 16,-92.8 1742,-92.8 1742,-40.8 16,-40.8"/>
</g>
<g id="clust15" class="cluster">
<title>cluster_SharedModule_exports</title>
<polygon fill="none" stroke="black" points="53,-170.8 53,-222.8 1815,-222.8 1815,-170.8 53,-170.8"/>
</g>
<!-- BusEntityComponent -->
<g id="node1" class="node">
<title>BusEntityComponent</title>
<polygon fill="#ffffb3" stroke="black" points="1733.84,-84.8 1596.16,-84.8 1596.16,-48.8 1733.84,-48.8 1733.84,-84.8"/>
<text text-anchor="middle" x="1665" y="-62.6" font-family="Times,serif" font-size="14.00">BusEntityComponent</text>
</g>
<!-- SharedModule -->
<g id="node12" class="node">
<title>SharedModule</title>
<polygon fill="#8dd3c7" stroke="black" points="999.43,-149.8 996.43,-153.8 975.43,-153.8 972.43,-149.8 900.57,-149.8 900.57,-113.8 999.43,-113.8 999.43,-149.8"/>
<text text-anchor="middle" x="950" y="-127.6" font-family="Times,serif" font-size="14.00">SharedModule</text>
</g>
<!-- BusEntityComponent&#45;&gt;SharedModule -->
<g id="edge1" class="edge">
<title>BusEntityComponent&#45;&gt;SharedModule</title>
<path fill="none" stroke="black" d="M1622.56,-85.1C1622.56,-103.07 1622.56,-127.8 1622.56,-127.8 1622.56,-127.8 1009.46,-127.8 1009.46,-127.8"/>
<polygon fill="black" stroke="black" points="1009.46,-124.3 999.46,-127.8 1009.46,-131.3 1009.46,-124.3"/>
</g>
<!-- DoubleInputComponent -->
<g id="node2" class="node">
<title>DoubleInputComponent</title>
<polygon fill="#ffffb3" stroke="black" points="1578.1,-84.8 1425.9,-84.8 1425.9,-48.8 1578.1,-48.8 1578.1,-84.8"/>
<text text-anchor="middle" x="1502" y="-62.6" font-family="Times,serif" font-size="14.00">DoubleInputComponent</text>
</g>
<!-- DoubleInputComponent&#45;&gt;SharedModule -->
<g id="edge2" class="edge">
<title>DoubleInputComponent&#45;&gt;SharedModule</title>
<path fill="none" stroke="black" d="M1450.38,-84.84C1450.38,-101.53 1450.38,-123.8 1450.38,-123.8 1450.38,-123.8 1009.35,-123.8 1009.35,-123.8"/>
<polygon fill="black" stroke="black" points="1009.35,-120.3 999.35,-123.8 1009.35,-127.3 1009.35,-120.3"/>
</g>
<!-- DropdownOptionComponent -->
<g id="node3" class="node">
<title>DropdownOptionComponent</title>
<polygon fill="#ffffb3" stroke="black" points="1408.1,-84.8 1227.9,-84.8 1227.9,-48.8 1408.1,-48.8 1408.1,-84.8"/>
<text text-anchor="middle" x="1318" y="-62.6" font-family="Times,serif" font-size="14.00">DropdownOptionComponent</text>
</g>
<!-- DropdownOptionComponent&#45;&gt;SharedModule -->
<g id="edge3" class="edge">
<title>DropdownOptionComponent&#45;&gt;SharedModule</title>
<path fill="none" stroke="black" d="M1250.65,-85.08C1250.65,-100.75 1250.65,-120.8 1250.65,-120.8 1250.65,-120.8 1009.31,-120.8 1009.31,-120.8"/>
<polygon fill="black" stroke="black" points="1009.31,-117.3 999.31,-120.8 1009.31,-124.3 1009.31,-117.3"/>
</g>
<!-- FilterPipe -->
<g id="node4" class="node">
<title>FilterPipe</title>
<polygon fill="#ffffb3" stroke="black" points="1209.72,-84.8 1138.28,-84.8 1138.28,-48.8 1209.72,-48.8 1209.72,-84.8"/>
<text text-anchor="middle" x="1174" y="-62.6" font-family="Times,serif" font-size="14.00">FilterPipe</text>
</g>
<!-- FilterPipe&#45;&gt;SharedModule -->
<g id="edge4" class="edge">
<title>FilterPipe&#45;&gt;SharedModule</title>
<path fill="none" stroke="black" d="M1159.68,-84.92C1159.68,-99.58 1159.68,-117.8 1159.68,-117.8 1159.68,-117.8 1009.43,-117.8 1009.43,-117.8"/>
<polygon fill="black" stroke="black" points="1009.43,-114.3 999.43,-117.8 1009.43,-121.3 1009.43,-114.3"/>
</g>
<!-- MainInputComponent -->
<g id="node5" class="node">
<title>MainInputComponent</title>
<polygon fill="#ffffb3" stroke="black" points="1120.44,-84.8 979.56,-84.8 979.56,-48.8 1120.44,-48.8 1120.44,-84.8"/>
<text text-anchor="middle" x="1050" y="-62.6" font-family="Times,serif" font-size="14.00">MainInputComponent</text>
</g>
<!-- MainInputComponent&#45;&gt;SharedModule -->
<g id="edge5" class="edge">
<title>MainInputComponent&#45;&gt;SharedModule</title>
<path fill="none" stroke="black" d="M989.5,-84.91C989.5,-84.91 989.5,-103.79 989.5,-103.79"/>
<polygon fill="black" stroke="black" points="986,-103.79 989.5,-113.79 993,-103.79 986,-103.79"/>
</g>
<!-- MiniMapComponent -->
<g id="node6" class="node">
<title>MiniMapComponent</title>
<polygon fill="#ffffb3" stroke="black" points="962.22,-84.8 827.78,-84.8 827.78,-48.8 962.22,-48.8 962.22,-84.8"/>
<text text-anchor="middle" x="895" y="-62.6" font-family="Times,serif" font-size="14.00">MiniMapComponent</text>
</g>
<!-- MiniMapComponent&#45;&gt;SharedModule -->
<g id="edge6" class="edge">
<title>MiniMapComponent&#45;&gt;SharedModule</title>
<path fill="none" stroke="black" d="M931.45,-84.91C931.45,-84.91 931.45,-103.79 931.45,-103.79"/>
<polygon fill="black" stroke="black" points="927.95,-103.79 931.45,-113.79 934.95,-103.79 927.95,-103.79"/>
</g>
<!-- MultipleDropdownComponent -->
<g id="node7" class="node">
<title>MultipleDropdownComponent</title>
<polygon fill="#ffffb3" stroke="black" points="809.94,-84.8 620.06,-84.8 620.06,-48.8 809.94,-48.8 809.94,-84.8"/>
<text text-anchor="middle" x="715" y="-62.6" font-family="Times,serif" font-size="14.00">MultipleDropdownComponent</text>
</g>
<!-- MultipleDropdownComponent&#45;&gt;SharedModule -->
<g id="edge7" class="edge">
<title>MultipleDropdownComponent&#45;&gt;SharedModule</title>
<path fill="none" stroke="black" d="M740.12,-84.92C740.12,-99.58 740.12,-117.8 740.12,-117.8 740.12,-117.8 890.53,-117.8 890.53,-117.8"/>
<polygon fill="black" stroke="black" points="890.53,-121.3 900.53,-117.8 890.53,-114.3 890.53,-121.3"/>
</g>
<!-- OptionComponent -->
<g id="node8" class="node">
<title>OptionComponent</title>
<polygon fill="#ffffb3" stroke="black" points="602.22,-84.8 481.78,-84.8 481.78,-48.8 602.22,-48.8 602.22,-84.8"/>
<text text-anchor="middle" x="542" y="-62.6" font-family="Times,serif" font-size="14.00">OptionComponent</text>
</g>
<!-- OptionComponent&#45;&gt;SharedModule -->
<g id="edge8" class="edge">
<title>OptionComponent&#45;&gt;SharedModule</title>
<path fill="none" stroke="black" d="M565.62,-85.08C565.62,-100.75 565.62,-120.8 565.62,-120.8 565.62,-120.8 890.54,-120.8 890.54,-120.8"/>
<polygon fill="black" stroke="black" points="890.54,-124.3 900.54,-120.8 890.54,-117.3 890.54,-124.3"/>
</g>
<!-- SpinnerComponent -->
<g id="node9" class="node">
<title>SpinnerComponent</title>
<polygon fill="#ffffb3" stroke="black" points="463.38,-84.8 338.62,-84.8 338.62,-48.8 463.38,-48.8 463.38,-84.8"/>
<text text-anchor="middle" x="401" y="-62.6" font-family="Times,serif" font-size="14.00">SpinnerComponent</text>
</g>
<!-- SpinnerComponent&#45;&gt;SharedModule -->
<g id="edge9" class="edge">
<title>SpinnerComponent&#45;&gt;SharedModule</title>
<path fill="none" stroke="black" d="M423.12,-84.84C423.12,-101.53 423.12,-123.8 423.12,-123.8 423.12,-123.8 890.43,-123.8 890.43,-123.8"/>
<polygon fill="black" stroke="black" points="890.43,-127.3 900.43,-123.8 890.43,-120.3 890.43,-127.3"/>
</g>
<!-- StationEntityComponent -->
<g id="node10" class="node">
<title>StationEntityComponent</title>
<polygon fill="#ffffb3" stroke="black" points="320.72,-84.8 165.28,-84.8 165.28,-48.8 320.72,-48.8 320.72,-84.8"/>
<text text-anchor="middle" x="243" y="-62.6" font-family="Times,serif" font-size="14.00">StationEntityComponent</text>
</g>
<!-- StationEntityComponent&#45;&gt;SharedModule -->
<g id="edge10" class="edge">
<title>StationEntityComponent&#45;&gt;SharedModule</title>
<path fill="none" stroke="black" d="M263.12,-85.1C263.12,-103.07 263.12,-127.8 263.12,-127.8 263.12,-127.8 890.6,-127.8 890.6,-127.8"/>
<polygon fill="black" stroke="black" points="890.6,-131.3 900.6,-127.8 890.6,-124.3 890.6,-131.3"/>
</g>
<!-- ToasterComponent -->
<g id="node11" class="node">
<title>ToasterComponent</title>
<polygon fill="#ffffb3" stroke="black" points="147.81,-84.8 24.19,-84.8 24.19,-48.8 147.81,-48.8 147.81,-84.8"/>
<text text-anchor="middle" x="86" y="-62.6" font-family="Times,serif" font-size="14.00">ToasterComponent</text>
</g>
<!-- ToasterComponent&#45;&gt;SharedModule -->
<g id="edge11" class="edge">
<title>ToasterComponent&#45;&gt;SharedModule</title>
<path fill="none" stroke="black" d="M104.12,-84.97C104.12,-103.89 104.12,-130.8 104.12,-130.8 104.12,-130.8 890.56,-130.8 890.56,-130.8"/>
<polygon fill="black" stroke="black" points="890.56,-134.3 900.56,-130.8 890.56,-127.3 890.56,-134.3"/>
</g>
<!-- BusEntityComponent  -->
<g id="node14" class="node">
<title>BusEntityComponent </title>
<polygon fill="#fb8072" stroke="black" points="1807.34,-214.8 1666.66,-214.8 1666.66,-178.8 1807.34,-178.8 1807.34,-214.8"/>
<text text-anchor="middle" x="1737" y="-192.6" font-family="Times,serif" font-size="14.00">BusEntityComponent </text>
</g>
<!-- SharedModule&#45;&gt;BusEntityComponent  -->
<g id="edge13" class="edge">
<title>SharedModule&#45;&gt;BusEntityComponent </title>
<path fill="none" stroke="black" stroke-dasharray="5,2" d="M999.22,-133.8C1166.1,-133.8 1700.12,-133.8 1700.12,-133.8 1700.12,-133.8 1700.12,-168.58 1700.12,-168.58"/>
<polygon fill="black" stroke="black" points="1696.63,-168.58 1700.12,-178.58 1703.63,-168.58 1696.63,-168.58"/>
</g>
<!-- DoubleInputComponent  -->
<g id="node15" class="node">
<title>DoubleInputComponent </title>
<polygon fill="#fb8072" stroke="black" points="1648.6,-214.8 1493.4,-214.8 1493.4,-178.8 1648.6,-178.8 1648.6,-214.8"/>
<text text-anchor="middle" x="1571" y="-192.6" font-family="Times,serif" font-size="14.00">DoubleInputComponent </text>
</g>
<!-- SharedModule&#45;&gt;DoubleInputComponent  -->
<g id="edge14" class="edge">
<title>SharedModule&#45;&gt;DoubleInputComponent </title>
<path fill="none" stroke="black" stroke-dasharray="5,2" d="M999.43,-136.8C1140.61,-136.8 1535.62,-136.8 1535.62,-136.8 1535.62,-136.8 1535.62,-168.8 1535.62,-168.8"/>
<polygon fill="black" stroke="black" points="1532.13,-168.8 1535.62,-178.8 1539.13,-168.8 1532.13,-168.8"/>
</g>
<!-- DropdownOptionComponent  -->
<g id="node16" class="node">
<title>DropdownOptionComponent </title>
<polygon fill="#fb8072" stroke="black" points="1474.6,-214.8 1291.4,-214.8 1291.4,-178.8 1474.6,-178.8 1474.6,-214.8"/>
<text text-anchor="middle" x="1383" y="-192.6" font-family="Times,serif" font-size="14.00">DropdownOptionComponent </text>
</g>
<!-- SharedModule&#45;&gt;DropdownOptionComponent  -->
<g id="edge15" class="edge">
<title>SharedModule&#45;&gt;DropdownOptionComponent </title>
<path fill="none" stroke="black" stroke-dasharray="5,2" d="M999.4,-140.8C1106.32,-140.8 1349.62,-140.8 1349.62,-140.8 1349.62,-140.8 1349.62,-168.77 1349.62,-168.77"/>
<polygon fill="black" stroke="black" points="1346.13,-168.77 1349.62,-178.77 1353.13,-168.77 1346.13,-168.77"/>
</g>
<!-- FilterPipe  -->
<g id="node17" class="node">
<title>FilterPipe </title>
<polygon fill="#fb8072" stroke="black" points="1273.22,-214.8 1198.78,-214.8 1198.78,-178.8 1273.22,-178.8 1273.22,-214.8"/>
<text text-anchor="middle" x="1236" y="-192.6" font-family="Times,serif" font-size="14.00">FilterPipe </text>
</g>
<!-- SharedModule&#45;&gt;FilterPipe  -->
<g id="edge16" class="edge">
<title>SharedModule&#45;&gt;FilterPipe </title>
<path fill="none" stroke="black" stroke-dasharray="5,2" d="M999.3,-143.8C1073.2,-143.8 1204.12,-143.8 1204.12,-143.8 1204.12,-143.8 1204.12,-168.56 1204.12,-168.56"/>
<polygon fill="black" stroke="black" points="1200.63,-168.56 1204.12,-178.56 1207.63,-168.56 1200.63,-168.56"/>
</g>
<!-- MainInputComponent  -->
<g id="node18" class="node">
<title>MainInputComponent </title>
<polygon fill="#fb8072" stroke="black" points="1180.93,-214.8 1037.07,-214.8 1037.07,-178.8 1180.93,-178.8 1180.93,-214.8"/>
<text text-anchor="middle" x="1109" y="-192.6" font-family="Times,serif" font-size="14.00">MainInputComponent </text>
</g>
<!-- SharedModule&#45;&gt;MainInputComponent  -->
<g id="edge17" class="edge">
<title>SharedModule&#45;&gt;MainInputComponent </title>
<path fill="none" stroke="black" stroke-dasharray="5,2" d="M999.36,-146.8C1035.63,-146.8 1078.62,-146.8 1078.62,-146.8 1078.62,-146.8 1078.62,-168.75 1078.62,-168.75"/>
<polygon fill="black" stroke="black" points="1075.13,-168.75 1078.62,-178.75 1082.13,-168.75 1075.13,-168.75"/>
</g>
<!-- MiniMapComponent  -->
<g id="node19" class="node">
<title>MiniMapComponent </title>
<polygon fill="#fb8072" stroke="black" points="1018.72,-214.8 881.28,-214.8 881.28,-178.8 1018.72,-178.8 1018.72,-214.8"/>
<text text-anchor="middle" x="950" y="-192.6" font-family="Times,serif" font-size="14.00">MiniMapComponent </text>
</g>
<!-- SharedModule&#45;&gt;MiniMapComponent  -->
<g id="edge18" class="edge">
<title>SharedModule&#45;&gt;MiniMapComponent </title>
<path fill="none" stroke="black" stroke-dasharray="5,2" d="M950,-149.91C950,-149.91 950,-168.79 950,-168.79"/>
<polygon fill="black" stroke="black" points="946.5,-168.79 950,-178.79 953.5,-168.79 946.5,-168.79"/>
</g>
<!-- MultipleDropdownComponent  -->
<g id="node20" class="node">
<title>MultipleDropdownComponent </title>
<polygon fill="#fb8072" stroke="black" points="863.43,-214.8 670.57,-214.8 670.57,-178.8 863.43,-178.8 863.43,-214.8"/>
<text text-anchor="middle" x="767" y="-192.6" font-family="Times,serif" font-size="14.00">MultipleDropdownComponent </text>
</g>
<!-- SharedModule&#45;&gt;MultipleDropdownComponent  -->
<g id="edge19" class="edge">
<title>SharedModule&#45;&gt;MultipleDropdownComponent </title>
<path fill="none" stroke="black" stroke-dasharray="5,2" d="M900.59,-146.8C873.62,-146.8 845.68,-146.8 845.68,-146.8 845.68,-146.8 845.68,-168.75 845.68,-168.75"/>
<polygon fill="black" stroke="black" points="842.18,-168.75 845.68,-178.75 849.18,-168.75 842.18,-168.75"/>
</g>
<!-- OptionComponent  -->
<g id="node21" class="node">
<title>OptionComponent </title>
<polygon fill="#fb8072" stroke="black" points="652.72,-214.8 529.28,-214.8 529.28,-178.8 652.72,-178.8 652.72,-214.8"/>
<text text-anchor="middle" x="591" y="-192.6" font-family="Times,serif" font-size="14.00">OptionComponent </text>
</g>
<!-- SharedModule&#45;&gt;OptionComponent  -->
<g id="edge20" class="edge">
<title>SharedModule&#45;&gt;OptionComponent </title>
<path fill="none" stroke="black" stroke-dasharray="5,2" d="M900.68,-143.8C812.42,-143.8 636.57,-143.8 636.57,-143.8 636.57,-143.8 636.57,-168.56 636.57,-168.56"/>
<polygon fill="black" stroke="black" points="633.07,-168.56 636.57,-178.56 640.07,-168.56 633.07,-168.56"/>
</g>
<!-- SpinnerComponent  -->
<g id="node22" class="node">
<title>SpinnerComponent </title>
<polygon fill="#fb8072" stroke="black" points="511.38,-214.8 382.62,-214.8 382.62,-178.8 511.38,-178.8 511.38,-214.8"/>
<text text-anchor="middle" x="447" y="-192.6" font-family="Times,serif" font-size="14.00">SpinnerComponent </text>
</g>
<!-- SharedModule&#45;&gt;SpinnerComponent  -->
<g id="edge21" class="edge">
<title>SharedModule&#45;&gt;SpinnerComponent </title>
<path fill="none" stroke="black" stroke-dasharray="5,2" d="M900.61,-140.8C783.08,-140.8 496.54,-140.8 496.54,-140.8 496.54,-140.8 496.54,-168.77 496.54,-168.77"/>
<polygon fill="black" stroke="black" points="493.04,-168.77 496.54,-178.77 500.04,-168.77 493.04,-168.77"/>
</g>
<!-- StationEntityComponent  -->
<g id="node23" class="node">
<title>StationEntityComponent </title>
<polygon fill="#fb8072" stroke="black" points="364.22,-214.8 205.78,-214.8 205.78,-178.8 364.22,-178.8 364.22,-214.8"/>
<text text-anchor="middle" x="285" y="-192.6" font-family="Times,serif" font-size="14.00">StationEntityComponent </text>
</g>
<!-- SharedModule&#45;&gt;StationEntityComponent  -->
<g id="edge22" class="edge">
<title>SharedModule&#45;&gt;StationEntityComponent </title>
<path fill="none" stroke="black" stroke-dasharray="5,2" d="M900.76,-136.8C757.59,-136.8 351.46,-136.8 351.46,-136.8 351.46,-136.8 351.46,-168.8 351.46,-168.8"/>
<polygon fill="black" stroke="black" points="347.96,-168.8 351.46,-178.8 354.96,-168.8 347.96,-168.8"/>
</g>
<!-- ToasterComponent  -->
<g id="node24" class="node">
<title>ToasterComponent </title>
<polygon fill="#fb8072" stroke="black" points="187.31,-214.8 60.69,-214.8 60.69,-178.8 187.31,-178.8 187.31,-214.8"/>
<text text-anchor="middle" x="124" y="-192.6" font-family="Times,serif" font-size="14.00">ToasterComponent </text>
</g>
<!-- SharedModule&#45;&gt;ToasterComponent  -->
<g id="edge23" class="edge">
<title>SharedModule&#45;&gt;ToasterComponent </title>
<path fill="none" stroke="black" stroke-dasharray="5,2" d="M900.73,-133.8C730.33,-133.8 176.4,-133.8 176.4,-133.8 176.4,-133.8 176.4,-168.58 176.4,-168.58"/>
<polygon fill="black" stroke="black" points="172.9,-168.58 176.4,-178.58 179.9,-168.58 172.9,-168.58"/>
</g>
<!-- MapModule -->
<g id="node13" class="node">
<title>MapModule</title>
<polygon fill="#8dd3c7" stroke="black" points="1843.71,-84.8 1840.71,-88.8 1819.71,-88.8 1816.71,-84.8 1758.29,-84.8 1758.29,-48.8 1843.71,-48.8 1843.71,-84.8"/>
<text text-anchor="middle" x="1801" y="-62.6" font-family="Times,serif" font-size="14.00">MapModule</text>
</g>
<!-- MapModule&#45;&gt;SharedModule -->
<g id="edge12" class="edge">
<title>MapModule&#45;&gt;SharedModule</title>
<path fill="none" stroke="black" d="M1782.91,-84.97C1782.91,-103.89 1782.91,-130.8 1782.91,-130.8 1782.91,-130.8 1009.3,-130.8 1009.3,-130.8"/>
<polygon fill="black" stroke="black" points="1009.3,-127.3 999.3,-130.8 1009.3,-134.3 1009.3,-127.3"/>
</g>
</g>
</svg>
