<?xml version="1.0" encoding="UTF-8" standalone="no"?>
<!DOCTYPE svg PUBLIC "-//W3C//DTD SVG 1.1//EN"
 "http://www.w3.org/Graphics/SVG/1.1/DTD/svg11.dtd">
<!-- Generated by graphviz version 5.0.0 (20220707.1540)
 -->
<!-- Title: dependencies Pages: 1 -->
<svg width="731pt" height="174pt"
 viewBox="0.00 0.00 731.00 173.80" xmlns="http://www.w3.org/2000/svg" xmlns:xlink="http://www.w3.org/1999/xlink">
<g id="graph0" class="graph" transform="scale(1 1) rotate(0) translate(4 169.8)">
<title>dependencies</title>
<polygon fill="white" stroke="transparent" points="-4,4 -4,-169.8 727,-169.8 727,4 -4,4"/>
<text text-anchor="middle" x="361.5" y="-8.2" font-family="sans-serif" font-size="14.00">dependencies</text>
<g id="clust1" class="cluster">
<title>cluster_AuthModule</title>
<polygon fill="none" stroke="black" stroke-dasharray="1,5" points="8,-32.8 8,-157.8 715,-157.8 715,-32.8 8,-32.8"/>
</g>
<g id="clust8" class="cluster">
<title>cluster_AuthModule_providers</title>
<polygon fill="none" stroke="black" points="573,-40.8 573,-92.8 707,-92.8 707,-40.8 573,-40.8"/>
</g>
<g id="clust2" class="cluster">
<title>cluster_AuthModule_declarations</title>
<polygon fill="none" stroke="black" points="289,-40.8 289,-92.8 565,-92.8 565,-40.8 289,-40.8"/>
</g>
<g id="clust5" class="cluster">
<title>cluster_AuthModule_imports</title>
<polygon fill="none" stroke="black" points="16,-40.8 16,-92.8 281,-92.8 281,-40.8 16,-40.8"/>
</g>
<!-- LoginComponent -->
<g id="node1" class="node">
<title>LoginComponent</title>
<polygon fill="#ffffb3" stroke="black" points="557.27,-84.8 442.73,-84.8 442.73,-48.8 557.27,-48.8 557.27,-84.8"/>
<text text-anchor="middle" x="500" y="-62.6" font-family="Times,serif" font-size="14.00">LoginComponent</text>
</g>
<!-- AuthModule -->
<g id="node3" class="node">
<title>AuthModule</title>
<polygon fill="#8dd3c7" stroke="black" points="404.55,-149.8 401.55,-153.8 380.55,-153.8 377.55,-149.8 317.45,-149.8 317.45,-113.8 404.55,-113.8 404.55,-149.8"/>
<text text-anchor="middle" x="361" y="-127.6" font-family="Times,serif" font-size="14.00">AuthModule</text>
</g>
<!-- LoginComponent&#45;&gt;AuthModule -->
<g id="edge1" class="edge">
<title>LoginComponent&#45;&gt;AuthModule</title>
<path fill="none" stroke="black" d="M500,-84.82C500,-102.17 500,-125.8 500,-125.8 500,-125.8 414.6,-125.8 414.6,-125.8"/>
<polygon fill="black" stroke="black" points="414.6,-122.3 404.6,-125.8 414.6,-129.3 414.6,-122.3"/>
</g>
<!-- RegisterComponent -->
<g id="node2" class="node">
<title>RegisterComponent</title>
<polygon fill="#ffffb3" stroke="black" points="424.99,-84.8 297.01,-84.8 297.01,-48.8 424.99,-48.8 424.99,-84.8"/>
<text text-anchor="middle" x="361" y="-62.6" font-family="Times,serif" font-size="14.00">RegisterComponent</text>
</g>
<!-- RegisterComponent&#45;&gt;AuthModule -->
<g id="edge2" class="edge">
<title>RegisterComponent&#45;&gt;AuthModule</title>
<path fill="none" stroke="black" d="M361,-84.91C361,-84.91 361,-103.79 361,-103.79"/>
<polygon fill="black" stroke="black" points="357.5,-103.79 361,-113.79 364.5,-103.79 357.5,-103.79"/>
</g>
<!-- AuthRoutingModule -->
<g id="node4" class="node">
<title>AuthRoutingModule</title>
<polygon fill="#8dd3c7" stroke="black" points="273.17,-84.8 270.17,-88.8 249.17,-88.8 246.17,-84.8 140.83,-84.8 140.83,-48.8 273.17,-48.8 273.17,-84.8"/>
<text text-anchor="middle" x="207" y="-62.6" font-family="Times,serif" font-size="14.00">AuthRoutingModule</text>
</g>
<!-- AuthRoutingModule&#45;&gt;AuthModule -->
<g id="edge3" class="edge">
<title>AuthRoutingModule&#45;&gt;AuthModule</title>
<path fill="none" stroke="black" d="M207,-84.82C207,-102.17 207,-125.8 207,-125.8 207,-125.8 307.28,-125.8 307.28,-125.8"/>
<polygon fill="black" stroke="black" points="307.28,-129.3 317.28,-125.8 307.28,-122.3 307.28,-129.3"/>
</g>
<!-- SharedModule -->
<g id="node5" class="node">
<title>SharedModule</title>
<polygon fill="#8dd3c7" stroke="black" points="122.43,-84.8 119.43,-88.8 98.43,-88.8 95.43,-84.8 23.57,-84.8 23.57,-48.8 122.43,-48.8 122.43,-84.8"/>
<text text-anchor="middle" x="73" y="-62.6" font-family="Times,serif" font-size="14.00">SharedModule</text>
</g>
<!-- SharedModule&#45;&gt;AuthModule -->
<g id="edge4" class="edge">
<title>SharedModule&#45;&gt;AuthModule</title>
<path fill="none" stroke="black" d="M73,-85.08C73,-106.12 73,-137.8 73,-137.8 73,-137.8 307.26,-137.8 307.26,-137.8"/>
<polygon fill="black" stroke="black" points="307.26,-141.3 317.26,-137.8 307.26,-134.3 307.26,-141.3"/>
</g>
<!-- AuthService -->
<g id="node6" class="node">
<title>AuthService</title>
<ellipse fill="#fdb462" stroke="black" cx="640" cy="-66.8" rx="59.11" ry="18"/>
<text text-anchor="middle" x="640" y="-62.6" font-family="Times,serif" font-size="14.00">AuthService</text>
</g>
<!-- AuthService&#45;&gt;AuthModule -->
<g id="edge5" class="edge">
<title>AuthService&#45;&gt;AuthModule</title>
<path fill="none" stroke="black" d="M640,-85.08C640,-106.12 640,-137.8 640,-137.8 640,-137.8 414.59,-137.8 414.59,-137.8"/>
<polygon fill="black" stroke="black" points="414.59,-134.3 404.59,-137.8 414.59,-141.3 414.59,-134.3"/>
</g>
</g>
</svg>
