<?xml version="1.0" encoding="UTF-8" standalone="no"?>
<!DOCTYPE svg PUBLIC "-//W3C//DTD SVG 1.1//EN"
 "http://www.w3.org/Graphics/SVG/1.1/DTD/svg11.dtd">
<!-- Generated by graphviz version 5.0.0 (20220707.1540)
 -->
<!-- Title: dependencies Pages: 1 -->
<svg width="2817pt" height="174pt"
 viewBox="0.00 0.00 2817.00 173.80" xmlns="http://www.w3.org/2000/svg" xmlns:xlink="http://www.w3.org/1999/xlink">
<g id="graph0" class="graph" transform="scale(1 1) rotate(0) translate(4 169.8)">
<title>dependencies</title>
<polygon fill="white" stroke="transparent" points="-4,4 -4,-169.8 2813,-169.8 2813,4 -4,4"/>
<text text-anchor="middle" x="1404.5" y="-8.2" font-family="sans-serif" font-size="14.00">dependencies</text>
<g id="clust1" class="cluster">
<title>cluster_PlannerModule</title>
<polygon fill="none" stroke="black" stroke-dasharray="1,5" points="8,-32.8 8,-157.8 2801,-157.8 2801,-32.8 8,-32.8"/>
</g>
<g id="clust20" class="cluster">
<title>cluster_PlannerModule_providers</title>
<polygon fill="none" stroke="black" points="2633,-40.8 2633,-92.8 2793,-92.8 2793,-40.8 2633,-40.8"/>
</g>
<g id="clust2" class="cluster">
<title>cluster_PlannerModule_declarations</title>
<polygon fill="none" stroke="black" points="508,-40.8 508,-92.8 2625,-92.8 2625,-40.8 508,-40.8"/>
</g>
<g id="clust17" class="cluster">
<title>cluster_PlannerModule_imports</title>
<polygon fill="none" stroke="black" points="16,-40.8 16,-92.8 500,-92.8 500,-40.8 16,-40.8"/>
</g>
<!-- BookOptionsComponent -->
<g id="node1" class="node">
<title>BookOptionsComponent</title>
<polygon fill="#ffffb3" stroke="black" points="2617.01,-84.8 2460.99,-84.8 2460.99,-48.8 2617.01,-48.8 2617.01,-84.8"/>
<text text-anchor="middle" x="2539" y="-62.6" font-family="Times,serif" font-size="14.00">BookOptionsComponent</text>
</g>
<!-- PlannerModule -->
<g id="node15" class="node">
<title>PlannerModule</title>
<polygon fill="#8dd3c7" stroke="black" points="1445.32,-149.8 1442.32,-153.8 1421.32,-153.8 1418.32,-149.8 1342.68,-149.8 1342.68,-113.8 1445.32,-113.8 1445.32,-149.8"/>
<text text-anchor="middle" x="1394" y="-127.6" font-family="Times,serif" font-size="14.00">PlannerModule</text>
</g>
<!-- BookOptionsComponent&#45;&gt;PlannerModule -->
<g id="edge1" class="edge">
<title>BookOptionsComponent&#45;&gt;PlannerModule</title>
<path fill="none" stroke="black" d="M2539,-84.81C2539,-107.29 2539,-142.8 2539,-142.8 2539,-142.8 1455.42,-142.8 1455.42,-142.8"/>
<polygon fill="black" stroke="black" points="1455.42,-139.3 1445.42,-142.8 1455.42,-146.3 1455.42,-139.3"/>
</g>
<!-- BookingComponent -->
<g id="node2" class="node">
<title>BookingComponent</title>
<polygon fill="#ffffb3" stroke="black" points="2442.56,-84.8 2313.44,-84.8 2313.44,-48.8 2442.56,-48.8 2442.56,-84.8"/>
<text text-anchor="middle" x="2378" y="-62.6" font-family="Times,serif" font-size="14.00">BookingComponent</text>
</g>
<!-- BookingComponent&#45;&gt;PlannerModule -->
<g id="edge2" class="edge">
<title>BookingComponent&#45;&gt;PlannerModule</title>
<path fill="none" stroke="black" d="M2378,-84.84C2378,-106.46 2378,-139.8 2378,-139.8 2378,-139.8 1455.17,-139.8 1455.17,-139.8"/>
<polygon fill="black" stroke="black" points="1455.17,-136.3 1445.17,-139.8 1455.17,-143.3 1455.17,-136.3"/>
</g>
<!-- BookingPipe -->
<g id="node3" class="node">
<title>BookingPipe</title>
<polygon fill="#ffffb3" stroke="black" points="2295.62,-84.8 2206.38,-84.8 2206.38,-48.8 2295.62,-48.8 2295.62,-84.8"/>
<text text-anchor="middle" x="2251" y="-62.6" font-family="Times,serif" font-size="14.00">BookingPipe</text>
</g>
<!-- BookingPipe&#45;&gt;PlannerModule -->
<g id="edge3" class="edge">
<title>BookingPipe&#45;&gt;PlannerModule</title>
<path fill="none" stroke="black" d="M2251,-84.93C2251,-105.37 2251,-135.8 2251,-135.8 2251,-135.8 1455.36,-135.8 1455.36,-135.8"/>
<polygon fill="black" stroke="black" points="1455.36,-132.3 1445.36,-135.8 1455.36,-139.3 1455.36,-132.3"/>
</g>
<!-- BookingsComponent -->
<g id="node4" class="node">
<title>BookingsComponent</title>
<polygon fill="#ffffb3" stroke="black" points="2188.51,-84.8 2053.49,-84.8 2053.49,-48.8 2188.51,-48.8 2188.51,-84.8"/>
<text text-anchor="middle" x="2121" y="-62.6" font-family="Times,serif" font-size="14.00">BookingsComponent</text>
</g>
<!-- BookingsComponent&#45;&gt;PlannerModule -->
<g id="edge4" class="edge">
<title>BookingsComponent&#45;&gt;PlannerModule</title>
<path fill="none" stroke="black" d="M2121,-84.91C2121,-104.14 2121,-131.8 2121,-131.8 2121,-131.8 1455.41,-131.8 1455.41,-131.8"/>
<polygon fill="black" stroke="black" points="1455.41,-128.3 1445.41,-131.8 1455.41,-135.3 1455.41,-128.3"/>
</g>
<!-- InputComponent -->
<g id="node5" class="node">
<title>InputComponent</title>
<polygon fill="#ffffb3" stroke="black" points="2035.38,-84.8 1924.62,-84.8 1924.62,-48.8 2035.38,-48.8 2035.38,-84.8"/>
<text text-anchor="middle" x="1980" y="-62.6" font-family="Times,serif" font-size="14.00">InputComponent</text>
</g>
<!-- InputComponent&#45;&gt;PlannerModule -->
<g id="edge5" class="edge">
<title>InputComponent&#45;&gt;PlannerModule</title>
<path fill="none" stroke="black" d="M1980,-85.07C1980,-103.36 1980,-128.8 1980,-128.8 1980,-128.8 1455.23,-128.8 1455.23,-128.8"/>
<polygon fill="black" stroke="black" points="1455.23,-125.3 1445.23,-128.8 1455.23,-132.3 1455.23,-125.3"/>
</g>
<!-- PlacesComponent -->
<g id="node6" class="node">
<title>PlacesComponent</title>
<polygon fill="#ffffb3" stroke="black" points="1906.6,-84.8 1789.4,-84.8 1789.4,-48.8 1906.6,-48.8 1906.6,-84.8"/>
<text text-anchor="middle" x="1848" y="-62.6" font-family="Times,serif" font-size="14.00">PlacesComponent</text>
</g>
<!-- PlacesComponent&#45;&gt;PlannerModule -->
<g id="edge6" class="edge">
<title>PlacesComponent&#45;&gt;PlannerModule</title>
<path fill="none" stroke="black" d="M1848,-84.83C1848,-101.86 1848,-124.8 1848,-124.8 1848,-124.8 1455.2,-124.8 1455.2,-124.8"/>
<polygon fill="black" stroke="black" points="1455.2,-121.3 1445.2,-124.8 1455.2,-128.3 1455.2,-121.3"/>
</g>
<!-- PlacesMapComponent -->
<g id="node7" class="node">
<title>PlacesMapComponent</title>
<polygon fill="#ffffb3" stroke="black" points="1771.26,-84.8 1628.74,-84.8 1628.74,-48.8 1771.26,-48.8 1771.26,-84.8"/>
<text text-anchor="middle" x="1700" y="-62.6" font-family="Times,serif" font-size="14.00">PlacesMapComponent</text>
</g>
<!-- PlacesMapComponent&#45;&gt;PlannerModule -->
<g id="edge7" class="edge">
<title>PlacesMapComponent&#45;&gt;PlannerModule</title>
<path fill="none" stroke="black" d="M1700,-84.81C1700,-100.85 1700,-121.8 1700,-121.8 1700,-121.8 1455.22,-121.8 1455.22,-121.8"/>
<polygon fill="black" stroke="black" points="1455.22,-118.3 1445.22,-121.8 1455.22,-125.3 1455.22,-118.3"/>
</g>
<!-- PlacesSliderComponent -->
<g id="node8" class="node">
<title>PlacesSliderComponent</title>
<polygon fill="#ffffb3" stroke="black" points="1610.04,-84.8 1459.96,-84.8 1459.96,-48.8 1610.04,-48.8 1610.04,-84.8"/>
<text text-anchor="middle" x="1535" y="-62.6" font-family="Times,serif" font-size="14.00">PlacesSliderComponent</text>
</g>
<!-- PlacesSliderComponent&#45;&gt;PlannerModule -->
<g id="edge8" class="edge">
<title>PlacesSliderComponent&#45;&gt;PlannerModule</title>
<path fill="none" stroke="black" d="M1535,-84.92C1535,-99.58 1535,-117.8 1535,-117.8 1535,-117.8 1455.3,-117.8 1455.3,-117.8"/>
<polygon fill="black" stroke="black" points="1455.3,-114.3 1445.3,-117.8 1455.3,-121.3 1455.3,-114.3"/>
</g>
<!-- QrComponent -->
<g id="node9" class="node">
<title>QrComponent</title>
<polygon fill="#ffffb3" stroke="black" points="1442.1,-84.8 1345.9,-84.8 1345.9,-48.8 1442.1,-48.8 1442.1,-84.8"/>
<text text-anchor="middle" x="1394" y="-62.6" font-family="Times,serif" font-size="14.00">QrComponent</text>
</g>
<!-- QrComponent&#45;&gt;PlannerModule -->
<g id="edge9" class="edge">
<title>QrComponent&#45;&gt;PlannerModule</title>
<path fill="none" stroke="black" d="M1394,-84.91C1394,-84.91 1394,-103.79 1394,-103.79"/>
<polygon fill="black" stroke="black" points="1390.5,-103.79 1394,-113.79 1397.5,-103.79 1390.5,-103.79"/>
</g>
<!-- StopDropDownComponent -->
<g id="node10" class="node">
<title>StopDropDownComponent</title>
<polygon fill="#ffffb3" stroke="black" points="1328,-84.8 1158,-84.8 1158,-48.8 1328,-48.8 1328,-84.8"/>
<text text-anchor="middle" x="1243" y="-62.6" font-family="Times,serif" font-size="14.00">StopDropDownComponent</text>
</g>
<!-- StopDropDownComponent&#45;&gt;PlannerModule -->
<g id="edge10" class="edge">
<title>StopDropDownComponent&#45;&gt;PlannerModule</title>
<path fill="none" stroke="black" d="M1243,-84.92C1243,-99.58 1243,-117.8 1243,-117.8 1243,-117.8 1332.46,-117.8 1332.46,-117.8"/>
<polygon fill="black" stroke="black" points="1332.46,-121.3 1342.46,-117.8 1332.46,-114.3 1332.46,-121.3"/>
</g>
<!-- TripComponent -->
<g id="node11" class="node">
<title>TripComponent</title>
<polygon fill="#ffffb3" stroke="black" points="1139.94,-84.8 1034.06,-84.8 1034.06,-48.8 1139.94,-48.8 1139.94,-84.8"/>
<text text-anchor="middle" x="1087" y="-62.6" font-family="Times,serif" font-size="14.00">TripComponent</text>
</g>
<!-- TripComponent&#45;&gt;PlannerModule -->
<g id="edge11" class="edge">
<title>TripComponent&#45;&gt;PlannerModule</title>
<path fill="none" stroke="black" d="M1087,-84.81C1087,-100.85 1087,-121.8 1087,-121.8 1087,-121.8 1332.62,-121.8 1332.62,-121.8"/>
<polygon fill="black" stroke="black" points="1332.62,-125.3 1342.62,-121.8 1332.62,-118.3 1332.62,-125.3"/>
</g>
<!-- TripDetailsComponent -->
<g id="node12" class="node">
<title>TripDetailsComponent</title>
<polygon fill="#ffffb3" stroke="black" points="1016.59,-84.8 871.41,-84.8 871.41,-48.8 1016.59,-48.8 1016.59,-84.8"/>
<text text-anchor="middle" x="944" y="-62.6" font-family="Times,serif" font-size="14.00">TripDetailsComponent</text>
</g>
<!-- TripDetailsComponent&#45;&gt;PlannerModule -->
<g id="edge12" class="edge">
<title>TripDetailsComponent&#45;&gt;PlannerModule</title>
<path fill="none" stroke="black" d="M944,-84.83C944,-101.86 944,-124.8 944,-124.8 944,-124.8 1332.82,-124.8 1332.82,-124.8"/>
<polygon fill="black" stroke="black" points="1332.82,-128.3 1342.82,-124.8 1332.82,-121.3 1332.82,-128.3"/>
</g>
<!-- TripListComponent -->
<g id="node13" class="node">
<title>TripListComponent</title>
<polygon fill="#ffffb3" stroke="black" points="853.71,-84.8 726.29,-84.8 726.29,-48.8 853.71,-48.8 853.71,-84.8"/>
<text text-anchor="middle" x="790" y="-62.6" font-family="Times,serif" font-size="14.00">TripListComponent</text>
</g>
<!-- TripListComponent&#45;&gt;PlannerModule -->
<g id="edge13" class="edge">
<title>TripListComponent&#45;&gt;PlannerModule</title>
<path fill="none" stroke="black" d="M790,-85.07C790,-103.36 790,-128.8 790,-128.8 790,-128.8 1332.76,-128.8 1332.76,-128.8"/>
<polygon fill="black" stroke="black" points="1332.76,-132.3 1342.76,-128.8 1332.76,-125.3 1332.76,-132.3"/>
</g>
<!-- TripPlannerOptionsComponent -->
<g id="node14" class="node">
<title>TripPlannerOptionsComponent</title>
<polygon fill="#ffffb3" stroke="black" points="708.04,-84.8 515.96,-84.8 515.96,-48.8 708.04,-48.8 708.04,-84.8"/>
<text text-anchor="middle" x="612" y="-62.6" font-family="Times,serif" font-size="14.00">TripPlannerOptionsComponent</text>
</g>
<!-- TripPlannerOptionsComponent&#45;&gt;PlannerModule -->
<g id="edge14" class="edge">
<title>TripPlannerOptionsComponent&#45;&gt;PlannerModule</title>
<path fill="none" stroke="black" d="M612,-84.91C612,-104.14 612,-131.8 612,-131.8 612,-131.8 1332.69,-131.8 1332.69,-131.8"/>
<polygon fill="black" stroke="black" points="1332.69,-135.3 1342.69,-131.8 1332.69,-128.3 1332.69,-135.3"/>
</g>
<!-- AuthModule -->
<g id="node16" class="node">
<title>AuthModule</title>
<polygon fill="#8dd3c7" stroke="black" points="491.55,-84.8 488.55,-88.8 467.55,-88.8 464.55,-84.8 404.45,-84.8 404.45,-48.8 491.55,-48.8 491.55,-84.8"/>
<text text-anchor="middle" x="448" y="-62.6" font-family="Times,serif" font-size="14.00">AuthModule</text>
</g>
<!-- AuthModule&#45;&gt;PlannerModule -->
<g id="edge15" class="edge">
<title>AuthModule&#45;&gt;PlannerModule</title>
<path fill="none" stroke="black" d="M448,-84.93C448,-105.37 448,-135.8 448,-135.8 448,-135.8 1332.8,-135.8 1332.8,-135.8"/>
<polygon fill="black" stroke="black" points="1332.8,-139.3 1342.8,-135.8 1332.8,-132.3 1332.8,-139.3"/>
</g>
<!-- MapModule -->
<g id="node17" class="node">
<title>MapModule</title>
<polygon fill="#8dd3c7" stroke="black" points="386.71,-84.8 383.71,-88.8 362.71,-88.8 359.71,-84.8 301.29,-84.8 301.29,-48.8 386.71,-48.8 386.71,-84.8"/>
<text text-anchor="middle" x="344" y="-62.6" font-family="Times,serif" font-size="14.00">MapModule</text>
</g>
<!-- MapModule&#45;&gt;PlannerModule -->
<g id="edge16" class="edge">
<title>MapModule&#45;&gt;PlannerModule</title>
<path fill="none" stroke="black" d="M344,-84.84C344,-106.46 344,-139.8 344,-139.8 344,-139.8 1332.65,-139.8 1332.65,-139.8"/>
<polygon fill="black" stroke="black" points="1332.65,-143.3 1342.65,-139.8 1332.65,-136.3 1332.65,-143.3"/>
</g>
<!-- RoutesRoutingModule -->
<g id="node18" class="node">
<title>RoutesRoutingModule</title>
<polygon fill="#8dd3c7" stroke="black" points="283.56,-84.8 280.56,-88.8 259.56,-88.8 256.56,-84.8 140.44,-84.8 140.44,-48.8 283.56,-48.8 283.56,-84.8"/>
<text text-anchor="middle" x="212" y="-62.6" font-family="Times,serif" font-size="14.00">RoutesRoutingModule</text>
</g>
<!-- RoutesRoutingModule&#45;&gt;PlannerModule -->
<g id="edge17" class="edge">
<title>RoutesRoutingModule&#45;&gt;PlannerModule</title>
<path fill="none" stroke="black" d="M212,-84.81C212,-107.29 212,-142.8 212,-142.8 212,-142.8 1332.83,-142.8 1332.83,-142.8"/>
<polygon fill="black" stroke="black" points="1332.83,-146.3 1342.83,-142.8 1332.83,-139.3 1332.83,-146.3"/>
</g>
<!-- SharedModule -->
<g id="node19" class="node">
<title>SharedModule</title>
<polygon fill="#8dd3c7" stroke="black" points="122.43,-84.8 119.43,-88.8 98.43,-88.8 95.43,-84.8 23.57,-84.8 23.57,-48.8 122.43,-48.8 122.43,-84.8"/>
<text text-anchor="middle" x="73" y="-62.6" font-family="Times,serif" font-size="14.00">SharedModule</text>
</g>
<!-- SharedModule&#45;&gt;PlannerModule -->
<g id="edge18" class="edge">
<title>SharedModule&#45;&gt;PlannerModule</title>
<path fill="none" stroke="black" d="M73,-84.95C73,-108.56 73,-146.8 73,-146.8 73,-146.8 1332.62,-146.8 1332.62,-146.8"/>
<polygon fill="black" stroke="black" points="1332.62,-150.3 1342.62,-146.8 1332.62,-143.3 1332.62,-150.3"/>
</g>
<!-- DirectionsStore -->
<g id="node20" class="node">
<title>DirectionsStore</title>
<ellipse fill="#fdb462" stroke="black" cx="2713" cy="-66.8" rx="71.79" ry="18"/>
<text text-anchor="middle" x="2713" y="-62.6" font-family="Times,serif" font-size="14.00">DirectionsStore</text>
</g>
<!-- DirectionsStore&#45;&gt;PlannerModule -->
<g id="edge19" class="edge">
<title>DirectionsStore&#45;&gt;PlannerModule</title>
<path fill="none" stroke="black" d="M2713,-84.95C2713,-108.56 2713,-146.8 2713,-146.8 2713,-146.8 1455.3,-146.8 1455.3,-146.8"/>
<polygon fill="black" stroke="black" points="1455.3,-143.3 1445.3,-146.8 1455.3,-150.3 1455.3,-143.3"/>
</g>
</g>
</svg>
