<?xml version="1.0" encoding="UTF-8" standalone="no"?>
<!DOCTYPE svg PUBLIC "-//W3C//DTD SVG 1.1//EN"
 "http://www.w3.org/Graphics/SVG/1.1/DTD/svg11.dtd">
<!-- Generated by graphviz version 5.0.0 (20220707.1540)
 -->
<!-- Title: dependencies Pages: 1 -->
<svg width="729pt" height="174pt"
 viewBox="0.00 0.00 729.00 173.80" xmlns="http://www.w3.org/2000/svg" xmlns:xlink="http://www.w3.org/1999/xlink">
<g id="graph0" class="graph" transform="scale(1 1) rotate(0) translate(4 169.8)">
<title>dependencies</title>
<polygon fill="white" stroke="transparent" points="-4,4 -4,-169.8 725,-169.8 725,4 -4,4"/>
<text text-anchor="middle" x="360.5" y="-8.2" font-family="sans-serif" font-size="14.00">dependencies</text>
<g id="clust1" class="cluster">
<title>cluster_SavedModule</title>
<polygon fill="none" stroke="black" stroke-dasharray="1,5" points="8,-32.8 8,-157.8 713,-157.8 713,-32.8 8,-32.8"/>
</g>
<g id="clust4" class="cluster">
<title>cluster_SavedModule_imports</title>
<polygon fill="none" stroke="black" points="328,-40.8 328,-92.8 705,-92.8 705,-40.8 328,-40.8"/>
</g>
<g id="clust7" class="cluster">
<title>cluster_SavedModule_providers</title>
<polygon fill="none" stroke="black" points="188,-40.8 188,-92.8 320,-92.8 320,-40.8 188,-40.8"/>
</g>
<g id="clust2" class="cluster">
<title>cluster_SavedModule_declarations</title>
<polygon fill="none" stroke="black" points="16,-40.8 16,-92.8 180,-92.8 180,-40.8 16,-40.8"/>
</g>
<!-- SavedSliderComponent -->
<g id="node1" class="node">
<title>SavedSliderComponent</title>
<polygon fill="#ffffb3" stroke="black" points="172.49,-84.8 23.51,-84.8 23.51,-48.8 172.49,-48.8 172.49,-84.8"/>
<text text-anchor="middle" x="98" y="-62.6" font-family="Times,serif" font-size="14.00">SavedSliderComponent</text>
</g>
<!-- SavedModule -->
<g id="node2" class="node">
<title>SavedModule</title>
<polygon fill="#8dd3c7" stroke="black" points="431.77,-149.8 428.77,-153.8 407.77,-153.8 404.77,-149.8 338.23,-149.8 338.23,-113.8 431.77,-113.8 431.77,-149.8"/>
<text text-anchor="middle" x="385" y="-127.6" font-family="Times,serif" font-size="14.00">SavedModule</text>
</g>
<!-- SavedSliderComponent&#45;&gt;SavedModule -->
<g id="edge1" class="edge">
<title>SavedSliderComponent&#45;&gt;SavedModule</title>
<path fill="none" stroke="black" d="M98,-85.08C98,-106.12 98,-137.8 98,-137.8 98,-137.8 327.93,-137.8 327.93,-137.8"/>
<polygon fill="black" stroke="black" points="327.93,-141.3 337.93,-137.8 327.93,-134.3 327.93,-141.3"/>
</g>
<!-- AuthModule -->
<g id="node3" class="node">
<title>AuthModule</title>
<polygon fill="#8dd3c7" stroke="black" points="696.55,-84.8 693.55,-88.8 672.55,-88.8 669.55,-84.8 609.45,-84.8 609.45,-48.8 696.55,-48.8 696.55,-84.8"/>
<text text-anchor="middle" x="653" y="-62.6" font-family="Times,serif" font-size="14.00">AuthModule</text>
</g>
<!-- AuthModule&#45;&gt;SavedModule -->
<g id="edge2" class="edge">
<title>AuthModule&#45;&gt;SavedModule</title>
<path fill="none" stroke="black" d="M653,-85.08C653,-106.12 653,-137.8 653,-137.8 653,-137.8 441.99,-137.8 441.99,-137.8"/>
<polygon fill="black" stroke="black" points="441.99,-134.3 431.99,-137.8 441.99,-141.3 441.99,-134.3"/>
</g>
<!-- SavedRoutingModule -->
<g id="node4" class="node">
<title>SavedRoutingModule</title>
<polygon fill="#8dd3c7" stroke="black" points="591.38,-84.8 588.38,-88.8 567.38,-88.8 564.38,-84.8 452.62,-84.8 452.62,-48.8 591.38,-48.8 591.38,-84.8"/>
<text text-anchor="middle" x="522" y="-62.6" font-family="Times,serif" font-size="14.00">SavedRoutingModule</text>
</g>
<!-- SavedRoutingModule&#45;&gt;SavedModule -->
<g id="edge3" class="edge">
<title>SavedRoutingModule&#45;&gt;SavedModule</title>
<path fill="none" stroke="black" d="M522,-84.82C522,-102.17 522,-125.8 522,-125.8 522,-125.8 442.15,-125.8 442.15,-125.8"/>
<polygon fill="black" stroke="black" points="442.15,-122.3 432.15,-125.8 442.15,-129.3 442.15,-122.3"/>
</g>
<!-- SharedModule -->
<g id="node5" class="node">
<title>SharedModule</title>
<polygon fill="#8dd3c7" stroke="black" points="434.43,-84.8 431.43,-88.8 410.43,-88.8 407.43,-84.8 335.57,-84.8 335.57,-48.8 434.43,-48.8 434.43,-84.8"/>
<text text-anchor="middle" x="385" y="-62.6" font-family="Times,serif" font-size="14.00">SharedModule</text>
</g>
<!-- SharedModule&#45;&gt;SavedModule -->
<g id="edge4" class="edge">
<title>SharedModule&#45;&gt;SavedModule</title>
<path fill="none" stroke="black" d="M385,-84.91C385,-84.91 385,-103.79 385,-103.79"/>
<polygon fill="black" stroke="black" points="381.5,-103.79 385,-113.79 388.5,-103.79 381.5,-103.79"/>
</g>
<!-- DataService -->
<g id="node6" class="node">
<title>DataService</title>
<ellipse fill="#fdb462" stroke="black" cx="254" cy="-66.8" rx="58.45" ry="18"/>
<text text-anchor="middle" x="254" y="-62.6" font-family="Times,serif" font-size="14.00">DataService</text>
</g>
<!-- DataService&#45;&gt;SavedModule -->
<g id="edge5" class="edge">
<title>DataService&#45;&gt;SavedModule</title>
<path fill="none" stroke="black" d="M254,-84.82C254,-102.17 254,-125.8 254,-125.8 254,-125.8 328.08,-125.8 328.08,-125.8"/>
<polygon fill="black" stroke="black" points="328.08,-129.3 338.08,-125.8 328.08,-122.3 328.08,-129.3"/>
</g>
</g>
</svg>
