<?xml version="1.0" encoding="UTF-8" standalone="no"?>
<!DOCTYPE svg PUBLIC "-//W3C//DTD SVG 1.1//EN"
 "http://www.w3.org/Graphics/SVG/1.1/DTD/svg11.dtd">
<!-- Generated by graphviz version 5.0.0 (20220707.1540)
 -->
<!-- Title: dependencies Pages: 1 -->
<svg width="1663pt" height="247pt"
 viewBox="0.00 0.00 1663.00 246.80" xmlns="http://www.w3.org/2000/svg" xmlns:xlink="http://www.w3.org/1999/xlink">
<g id="graph0" class="graph" transform="scale(1 1) rotate(0) translate(4 242.8)">
<title>dependencies</title>
<polygon fill="white" stroke="transparent" points="-4,4 -4,-242.8 1659,-242.8 1659,4 -4,4"/>
<text text-anchor="middle" x="827.5" y="-8.2" font-family="sans-serif" font-size="14.00">dependencies</text>
<g id="clust1" class="cluster">
<title>cluster_LinesModule</title>
<polygon fill="none" stroke="black" stroke-dasharray="1,5" points="8,-32.8 8,-230.8 1647,-230.8 1647,-32.8 8,-32.8"/>
</g>
<g id="clust13" class="cluster">
<title>cluster_LinesModule_bootstrap</title>
<polygon fill="none" stroke="black" points="692,-170.8 692,-222.8 816,-222.8 816,-170.8 692,-170.8"/>
</g>
<g id="clust2" class="cluster">
<title>cluster_LinesModule_declarations</title>
<polygon fill="none" stroke="black" points="395,-40.8 395,-92.8 1639,-92.8 1639,-40.8 395,-40.8"/>
</g>
<g id="clust11" class="cluster">
<title>cluster_LinesModule_imports</title>
<polygon fill="none" stroke="black" points="16,-40.8 16,-92.8 387,-92.8 387,-40.8 16,-40.8"/>
</g>
<!-- LinesDropdownComponent -->
<g id="node1" class="node">
<title>LinesDropdownComponent</title>
<polygon fill="#ffffb3" stroke="black" points="1631.32,-84.8 1458.68,-84.8 1458.68,-48.8 1631.32,-48.8 1631.32,-84.8"/>
<text text-anchor="middle" x="1545" y="-62.6" font-family="Times,serif" font-size="14.00">LinesDropdownComponent</text>
</g>
<!-- LinesModule -->
<g id="node9" class="node">
<title>LinesModule</title>
<polygon fill="#8dd3c7" stroke="black" points="799.16,-149.8 796.16,-153.8 775.16,-153.8 772.16,-149.8 708.84,-149.8 708.84,-113.8 799.16,-113.8 799.16,-149.8"/>
<text text-anchor="middle" x="754" y="-127.6" font-family="Times,serif" font-size="14.00">LinesModule</text>
</g>
<!-- LinesDropdownComponent&#45;&gt;LinesModule -->
<g id="edge1" class="edge">
<title>LinesDropdownComponent&#45;&gt;LinesModule</title>
<path fill="none" stroke="black" d="M1545,-85.05C1545,-107.82 1545,-143.8 1545,-143.8 1545,-143.8 809.37,-143.8 809.37,-143.8"/>
<polygon fill="black" stroke="black" points="809.37,-140.3 799.37,-143.8 809.37,-147.3 809.37,-140.3"/>
</g>
<!-- LinesMapComponent -->
<g id="node2" class="node">
<title>LinesMapComponent</title>
<polygon fill="#ffffb3" stroke="black" points="1441.1,-84.8 1302.9,-84.8 1302.9,-48.8 1441.1,-48.8 1441.1,-84.8"/>
<text text-anchor="middle" x="1372" y="-62.6" font-family="Times,serif" font-size="14.00">LinesMapComponent</text>
</g>
<!-- LinesMapComponent&#45;&gt;LinesModule -->
<g id="edge2" class="edge">
<title>LinesMapComponent&#45;&gt;LinesModule</title>
<path fill="none" stroke="black" d="M1372,-85.08C1372,-106.12 1372,-137.8 1372,-137.8 1372,-137.8 809.19,-137.8 809.19,-137.8"/>
<polygon fill="black" stroke="black" points="809.19,-134.3 799.19,-137.8 809.19,-141.3 809.19,-134.3"/>
</g>
<!-- ListItemComponent -->
<g id="node3" class="node">
<title>ListItemComponent</title>
<polygon fill="#ffffb3" stroke="black" points="1285.27,-84.8 1156.73,-84.8 1156.73,-48.8 1285.27,-48.8 1285.27,-84.8"/>
<text text-anchor="middle" x="1221" y="-62.6" font-family="Times,serif" font-size="14.00">ListItemComponent</text>
</g>
<!-- ListItemComponent&#45;&gt;LinesModule -->
<g id="edge3" class="edge">
<title>ListItemComponent&#45;&gt;LinesModule</title>
<path fill="none" stroke="black" d="M1221,-84.91C1221,-104.14 1221,-131.8 1221,-131.8 1221,-131.8 809.2,-131.8 809.2,-131.8"/>
<polygon fill="black" stroke="black" points="809.2,-128.3 799.2,-131.8 809.2,-135.3 809.2,-128.3"/>
</g>
<!-- RouteDetailsComponent -->
<g id="node4" class="node">
<title>RouteDetailsComponent</title>
<polygon fill="#ffffb3" stroke="black" points="1138.43,-84.8 983.57,-84.8 983.57,-48.8 1138.43,-48.8 1138.43,-84.8"/>
<text text-anchor="middle" x="1061" y="-62.6" font-family="Times,serif" font-size="14.00">RouteDetailsComponent</text>
</g>
<!-- RouteDetailsComponent&#45;&gt;LinesModule -->
<g id="edge4" class="edge">
<title>RouteDetailsComponent&#45;&gt;LinesModule</title>
<path fill="none" stroke="black" d="M1061,-84.82C1061,-102.17 1061,-125.8 1061,-125.8 1061,-125.8 809.3,-125.8 809.3,-125.8"/>
<polygon fill="black" stroke="black" points="809.3,-122.3 799.3,-125.8 809.3,-129.3 809.3,-122.3"/>
</g>
<!-- RouteListComponent -->
<g id="node5" class="node">
<title>RouteListComponent</title>
<polygon fill="#ffffb3" stroke="black" points="966.05,-84.8 829.95,-84.8 829.95,-48.8 966.05,-48.8 966.05,-84.8"/>
<text text-anchor="middle" x="898" y="-62.6" font-family="Times,serif" font-size="14.00">RouteListComponent</text>
</g>
<!-- RouteListComponent&#45;&gt;LinesModule -->
<g id="edge5" class="edge">
<title>RouteListComponent&#45;&gt;LinesModule</title>
<path fill="none" stroke="black" d="M898,-85.04C898,-100.37 898,-119.8 898,-119.8 898,-119.8 809.17,-119.8 809.17,-119.8"/>
<polygon fill="black" stroke="black" points="809.17,-116.3 799.17,-119.8 809.17,-123.3 809.17,-116.3"/>
</g>
<!-- SelectComponent -->
<g id="node6" class="node">
<title>SelectComponent</title>
<polygon fill="#ffffb3" stroke="black" points="811.54,-84.8 696.46,-84.8 696.46,-48.8 811.54,-48.8 811.54,-84.8"/>
<text text-anchor="middle" x="754" y="-62.6" font-family="Times,serif" font-size="14.00">SelectComponent</text>
</g>
<!-- SelectComponent&#45;&gt;LinesModule -->
<g id="edge6" class="edge">
<title>SelectComponent&#45;&gt;LinesModule</title>
<path fill="none" stroke="black" d="M754,-84.91C754,-84.91 754,-103.79 754,-103.79"/>
<polygon fill="black" stroke="black" points="750.5,-103.79 754,-113.79 757.5,-103.79 750.5,-103.79"/>
</g>
<!-- SliderComponent -->
<g id="node7" class="node">
<title>SliderComponent</title>
<polygon fill="#ffffb3" stroke="black" points="678.27,-84.8 563.73,-84.8 563.73,-48.8 678.27,-48.8 678.27,-84.8"/>
<text text-anchor="middle" x="621" y="-62.6" font-family="Times,serif" font-size="14.00">SliderComponent</text>
</g>
<!-- SliderComponent&#45;&gt;LinesModule -->
<g id="edge7" class="edge">
<title>SliderComponent&#45;&gt;LinesModule</title>
<path fill="none" stroke="black" d="M621,-85.04C621,-100.37 621,-119.8 621,-119.8 621,-119.8 698.6,-119.8 698.6,-119.8"/>
<polygon fill="black" stroke="black" points="698.6,-123.3 708.6,-119.8 698.6,-116.3 698.6,-123.3"/>
</g>
<!-- StationListComponent -->
<g id="node8" class="node">
<title>StationListComponent</title>
<polygon fill="#ffffb3" stroke="black" points="545.28,-84.8 402.72,-84.8 402.72,-48.8 545.28,-48.8 545.28,-84.8"/>
<text text-anchor="middle" x="474" y="-62.6" font-family="Times,serif" font-size="14.00">StationListComponent</text>
</g>
<!-- StationListComponent&#45;&gt;LinesModule -->
<g id="edge8" class="edge">
<title>StationListComponent&#45;&gt;LinesModule</title>
<path fill="none" stroke="black" d="M474,-84.82C474,-102.17 474,-125.8 474,-125.8 474,-125.8 698.7,-125.8 698.7,-125.8"/>
<polygon fill="black" stroke="black" points="698.7,-129.3 708.7,-125.8 698.7,-122.3 698.7,-129.3"/>
</g>
<!-- AppComponent  -->
<g id="node13" class="node">
<title>AppComponent </title>
<polygon fill="#80b1d3" stroke="black" points="808.44,-214.8 699.56,-214.8 699.56,-178.8 808.44,-178.8 808.44,-214.8"/>
<text text-anchor="middle" x="754" y="-192.6" font-family="Times,serif" font-size="14.00">AppComponent </text>
</g>
<!-- LinesModule&#45;&gt;AppComponent  -->
<g id="edge12" class="edge">
<title>LinesModule&#45;&gt;AppComponent </title>
<path fill="none" stroke="black" stroke-dasharray="1,5" d="M754,-149.91C754,-149.91 754,-168.79 754,-168.79"/>
<polygon fill="black" stroke="black" points="750.5,-168.79 754,-178.79 757.5,-168.79 750.5,-168.79"/>
</g>
<!-- LinesRoutingModule -->
<g id="node10" class="node">
<title>LinesRoutingModule</title>
<polygon fill="#8dd3c7" stroke="black" points="378.77,-84.8 375.77,-88.8 354.77,-88.8 351.77,-84.8 243.23,-84.8 243.23,-48.8 378.77,-48.8 378.77,-84.8"/>
<text text-anchor="middle" x="311" y="-62.6" font-family="Times,serif" font-size="14.00">LinesRoutingModule</text>
</g>
<!-- LinesRoutingModule&#45;&gt;LinesModule -->
<g id="edge9" class="edge">
<title>LinesRoutingModule&#45;&gt;LinesModule</title>
<path fill="none" stroke="black" d="M311,-84.91C311,-104.14 311,-131.8 311,-131.8 311,-131.8 698.67,-131.8 698.67,-131.8"/>
<polygon fill="black" stroke="black" points="698.67,-135.3 708.67,-131.8 698.67,-128.3 698.67,-135.3"/>
</g>
<!-- MapModule -->
<g id="node11" class="node">
<title>MapModule</title>
<polygon fill="#8dd3c7" stroke="black" points="225.71,-84.8 222.71,-88.8 201.71,-88.8 198.71,-84.8 140.29,-84.8 140.29,-48.8 225.71,-48.8 225.71,-84.8"/>
<text text-anchor="middle" x="183" y="-62.6" font-family="Times,serif" font-size="14.00">MapModule</text>
</g>
<!-- MapModule&#45;&gt;LinesModule -->
<g id="edge10" class="edge">
<title>MapModule&#45;&gt;LinesModule</title>
<path fill="none" stroke="black" d="M183,-85.08C183,-106.12 183,-137.8 183,-137.8 183,-137.8 698.72,-137.8 698.72,-137.8"/>
<polygon fill="black" stroke="black" points="698.72,-141.3 708.72,-137.8 698.72,-134.3 698.72,-141.3"/>
</g>
<!-- SharedModule -->
<g id="node12" class="node">
<title>SharedModule</title>
<polygon fill="#8dd3c7" stroke="black" points="122.43,-84.8 119.43,-88.8 98.43,-88.8 95.43,-84.8 23.57,-84.8 23.57,-48.8 122.43,-48.8 122.43,-84.8"/>
<text text-anchor="middle" x="73" y="-62.6" font-family="Times,serif" font-size="14.00">SharedModule</text>
</g>
<!-- SharedModule&#45;&gt;LinesModule -->
<g id="edge11" class="edge">
<title>SharedModule&#45;&gt;LinesModule</title>
<path fill="none" stroke="black" d="M73,-85.05C73,-107.82 73,-143.8 73,-143.8 73,-143.8 698.79,-143.8 698.79,-143.8"/>
<polygon fill="black" stroke="black" points="698.79,-147.3 708.79,-143.8 698.79,-140.3 698.79,-147.3"/>
</g>
</g>
</svg>
