<?xml version="1.0" encoding="UTF-8" standalone="no"?>
<!DOCTYPE svg PUBLIC "-//W3C//DTD SVG 1.1//EN"
 "http://www.w3.org/Graphics/SVG/1.1/DTD/svg11.dtd">
<!-- Generated by graphviz version 5.0.0 (20220707.1540)
 -->
<!-- Title: dependencies Pages: 1 -->
<svg width="714pt" height="247pt"
 viewBox="0.00 0.00 714.00 246.80" xmlns="http://www.w3.org/2000/svg" xmlns:xlink="http://www.w3.org/1999/xlink">
<g id="graph0" class="graph" transform="scale(1 1) rotate(0) translate(4 242.8)">
<title>dependencies</title>
<polygon fill="white" stroke="transparent" points="-4,4 -4,-242.8 710,-242.8 710,4 -4,4"/>
<text text-anchor="middle" x="353" y="-8.2" font-family="sans-serif" font-size="14.00">dependencies</text>
<g id="clust1" class="cluster">
<title>cluster_AppModule</title>
<polygon fill="none" stroke="black" stroke-dasharray="1,5" points="8,-32.8 8,-230.8 698,-230.8 698,-32.8 8,-32.8"/>
</g>
<g id="clust7" class="cluster">
<title>cluster_AppModule_providers</title>
<polygon fill="none" stroke="black" points="522,-40.8 522,-92.8 690,-92.8 690,-40.8 522,-40.8"/>
</g>
<g id="clust2" class="cluster">
<title>cluster_AppModule_declarations</title>
<polygon fill="none" stroke="black" points="392,-40.8 392,-92.8 514,-92.8 514,-40.8 392,-40.8"/>
</g>
<g id="clust4" class="cluster">
<title>cluster_AppModule_imports</title>
<polygon fill="none" stroke="black" points="16,-40.8 16,-92.8 384,-92.8 384,-40.8 16,-40.8"/>
</g>
<g id="clust6" class="cluster">
<title>cluster_AppModule_bootstrap</title>
<polygon fill="none" stroke="black" points="250,-170.8 250,-222.8 374,-222.8 374,-170.8 250,-170.8"/>
</g>
<!-- AppComponent -->
<g id="node1" class="node">
<title>AppComponent</title>
<polygon fill="#ffffb3" stroke="black" points="505.94,-84.8 400.06,-84.8 400.06,-48.8 505.94,-48.8 505.94,-84.8"/>
<text text-anchor="middle" x="453" y="-62.6" font-family="Times,serif" font-size="14.00">AppComponent</text>
</g>
<!-- AppModule -->
<g id="node2" class="node">
<title>AppModule</title>
<polygon fill="#8dd3c7" stroke="black" points="353.66,-149.8 350.66,-153.8 329.66,-153.8 326.66,-149.8 270.34,-149.8 270.34,-113.8 353.66,-113.8 353.66,-149.8"/>
<text text-anchor="middle" x="312" y="-127.6" font-family="Times,serif" font-size="14.00">AppModule</text>
</g>
<!-- AppComponent&#45;&gt;AppModule -->
<g id="edge1" class="edge">
<title>AppComponent&#45;&gt;AppModule</title>
<path fill="none" stroke="black" d="M453,-84.82C453,-102.17 453,-125.8 453,-125.8 453,-125.8 363.92,-125.8 363.92,-125.8"/>
<polygon fill="black" stroke="black" points="363.92,-122.3 353.92,-125.8 363.92,-129.3 363.92,-122.3"/>
</g>
<!-- AppComponent  -->
<g id="node6" class="node">
<title>AppComponent </title>
<polygon fill="#80b1d3" stroke="black" points="366.44,-214.8 257.56,-214.8 257.56,-178.8 366.44,-178.8 366.44,-214.8"/>
<text text-anchor="middle" x="312" y="-192.6" font-family="Times,serif" font-size="14.00">AppComponent </text>
</g>
<!-- AppModule&#45;&gt;AppComponent  -->
<g id="edge5" class="edge">
<title>AppModule&#45;&gt;AppComponent </title>
<path fill="none" stroke="black" stroke-dasharray="1,5" d="M312,-149.91C312,-149.91 312,-168.79 312,-168.79"/>
<polygon fill="black" stroke="black" points="308.5,-168.79 312,-178.79 315.5,-168.79 308.5,-168.79"/>
</g>
<!-- AppRoutingModule -->
<g id="node3" class="node">
<title>AppRoutingModule</title>
<polygon fill="#8dd3c7" stroke="black" points="376.28,-84.8 373.28,-88.8 352.28,-88.8 349.28,-84.8 247.72,-84.8 247.72,-48.8 376.28,-48.8 376.28,-84.8"/>
<text text-anchor="middle" x="312" y="-62.6" font-family="Times,serif" font-size="14.00">AppRoutingModule</text>
</g>
<!-- AppRoutingModule&#45;&gt;AppModule -->
<g id="edge2" class="edge">
<title>AppRoutingModule&#45;&gt;AppModule</title>
<path fill="none" stroke="black" d="M312,-84.91C312,-84.91 312,-103.79 312,-103.79"/>
<polygon fill="black" stroke="black" points="308.5,-103.79 312,-113.79 315.5,-103.79 308.5,-103.79"/>
</g>
<!-- MapModule -->
<g id="node4" class="node">
<title>MapModule</title>
<polygon fill="#8dd3c7" stroke="black" points="229.71,-84.8 226.71,-88.8 205.71,-88.8 202.71,-84.8 144.29,-84.8 144.29,-48.8 229.71,-48.8 229.71,-84.8"/>
<text text-anchor="middle" x="187" y="-62.6" font-family="Times,serif" font-size="14.00">MapModule</text>
</g>
<!-- MapModule&#45;&gt;AppModule -->
<g id="edge3" class="edge">
<title>MapModule&#45;&gt;AppModule</title>
<path fill="none" stroke="black" d="M187,-84.82C187,-102.17 187,-125.8 187,-125.8 187,-125.8 260.03,-125.8 260.03,-125.8"/>
<polygon fill="black" stroke="black" points="260.03,-129.3 270.03,-125.8 260.03,-122.3 260.03,-129.3"/>
</g>
<!-- SidebarModule -->
<g id="node5" class="node">
<title>SidebarModule</title>
<polygon fill="#8dd3c7" stroke="black" points="126.32,-84.8 123.32,-88.8 102.32,-88.8 99.32,-84.8 23.68,-84.8 23.68,-48.8 126.32,-48.8 126.32,-84.8"/>
<text text-anchor="middle" x="75" y="-62.6" font-family="Times,serif" font-size="14.00">SidebarModule</text>
</g>
<!-- SidebarModule&#45;&gt;AppModule -->
<g id="edge4" class="edge">
<title>SidebarModule&#45;&gt;AppModule</title>
<path fill="none" stroke="black" d="M75,-85.08C75,-106.12 75,-137.8 75,-137.8 75,-137.8 260.17,-137.8 260.17,-137.8"/>
<polygon fill="black" stroke="black" points="260.17,-141.3 270.17,-137.8 260.17,-134.3 260.17,-141.3"/>
</g>
<!-- SocketIOService -->
<g id="node7" class="node">
<title>SocketIOService</title>
<ellipse fill="#fdb462" stroke="black" cx="606" cy="-66.8" rx="76.43" ry="18"/>
<text text-anchor="middle" x="606" y="-62.6" font-family="Times,serif" font-size="14.00">SocketIOService</text>
</g>
<!-- SocketIOService&#45;&gt;AppModule -->
<g id="edge6" class="edge">
<title>SocketIOService&#45;&gt;AppModule</title>
<path fill="none" stroke="black" d="M606,-85.08C606,-106.12 606,-137.8 606,-137.8 606,-137.8 363.81,-137.8 363.81,-137.8"/>
<polygon fill="black" stroke="black" points="363.81,-134.3 353.81,-137.8 363.81,-141.3 363.81,-134.3"/>
</g>
</g>
</svg>
