<?xml version="1.0" encoding="UTF-8" standalone="no"?>
<!DOCTYPE svg PUBLIC "-//W3C//DTD SVG 1.1//EN"
 "http://www.w3.org/Graphics/SVG/1.1/DTD/svg11.dtd">
<!-- Generated by graphviz version 5.0.0 (20220707.1540)
 -->
<!-- Title: dependencies Pages: 1 -->
<svg width="862pt" height="174pt"
 viewBox="0.00 0.00 862.00 173.80" xmlns="http://www.w3.org/2000/svg" xmlns:xlink="http://www.w3.org/1999/xlink">
<g id="graph0" class="graph" transform="scale(1 1) rotate(0) translate(4 169.8)">
<title>dependencies</title>
<polygon fill="white" stroke="transparent" points="-4,4 -4,-169.8 858,-169.8 858,4 -4,4"/>
<text text-anchor="middle" x="427" y="-8.2" font-family="sans-serif" font-size="14.00">dependencies</text>
<g id="clust1" class="cluster">
<title>cluster_StopsModule</title>
<polygon fill="none" stroke="black" stroke-dasharray="1,5" points="8,-32.8 8,-157.8 846,-157.8 846,-32.8 8,-32.8"/>
</g>
<g id="clust6" class="cluster">
<title>cluster_StopsModule_imports</title>
<polygon fill="none" stroke="black" points="466,-40.8 466,-92.8 838,-92.8 838,-40.8 466,-40.8"/>
</g>
<g id="clust2" class="cluster">
<title>cluster_StopsModule_declarations</title>
<polygon fill="none" stroke="black" points="16,-40.8 16,-92.8 458,-92.8 458,-40.8 16,-40.8"/>
</g>
<!-- StopSliderComponent -->
<g id="node1" class="node">
<title>StopSliderComponent</title>
<polygon fill="#ffffb3" stroke="black" points="450.45,-84.8 309.55,-84.8 309.55,-48.8 450.45,-48.8 450.45,-84.8"/>
<text text-anchor="middle" x="380" y="-62.6" font-family="Times,serif" font-size="14.00">StopSliderComponent</text>
</g>
<!-- StopsModule -->
<g id="node4" class="node">
<title>StopsModule</title>
<polygon fill="#8dd3c7" stroke="black" points="506.18,-149.8 503.18,-153.8 482.18,-153.8 479.18,-149.8 415.82,-149.8 415.82,-113.8 506.18,-113.8 506.18,-149.8"/>
<text text-anchor="middle" x="461" y="-127.6" font-family="Times,serif" font-size="14.00">StopsModule</text>
</g>
<!-- StopSliderComponent&#45;&gt;StopsModule -->
<g id="edge1" class="edge">
<title>StopSliderComponent&#45;&gt;StopsModule</title>
<path fill="none" stroke="black" d="M432.94,-84.91C432.94,-84.91 432.94,-103.79 432.94,-103.79"/>
<polygon fill="black" stroke="black" points="429.44,-103.79 432.94,-113.79 436.44,-103.79 429.44,-103.79"/>
</g>
<!-- StopsComponent -->
<g id="node2" class="node">
<title>StopsComponent</title>
<polygon fill="#ffffb3" stroke="black" points="292.46,-84.8 179.54,-84.8 179.54,-48.8 292.46,-48.8 292.46,-84.8"/>
<text text-anchor="middle" x="236" y="-62.6" font-family="Times,serif" font-size="14.00">StopsComponent</text>
</g>
<!-- StopsComponent&#45;&gt;StopsModule -->
<g id="edge2" class="edge">
<title>StopsComponent&#45;&gt;StopsModule</title>
<path fill="none" stroke="black" d="M236,-84.82C236,-102.17 236,-125.8 236,-125.8 236,-125.8 405.74,-125.8 405.74,-125.8"/>
<polygon fill="black" stroke="black" points="405.74,-129.3 415.74,-125.8 405.74,-122.3 405.74,-129.3"/>
</g>
<!-- StopsMapComponent -->
<g id="node3" class="node">
<title>StopsMapComponent</title>
<polygon fill="#ffffb3" stroke="black" points="162.12,-84.8 23.88,-84.8 23.88,-48.8 162.12,-48.8 162.12,-84.8"/>
<text text-anchor="middle" x="93" y="-62.6" font-family="Times,serif" font-size="14.00">StopsMapComponent</text>
</g>
<!-- StopsMapComponent&#45;&gt;StopsModule -->
<g id="edge3" class="edge">
<title>StopsMapComponent&#45;&gt;StopsModule</title>
<path fill="none" stroke="black" d="M93,-85.08C93,-106.12 93,-137.8 93,-137.8 93,-137.8 405.51,-137.8 405.51,-137.8"/>
<polygon fill="black" stroke="black" points="405.51,-141.3 415.51,-137.8 405.51,-134.3 405.51,-141.3"/>
</g>
<!-- MapModule -->
<g id="node5" class="node">
<title>MapModule</title>
<polygon fill="#8dd3c7" stroke="black" points="829.71,-84.8 826.71,-88.8 805.71,-88.8 802.71,-84.8 744.29,-84.8 744.29,-48.8 829.71,-48.8 829.71,-84.8"/>
<text text-anchor="middle" x="787" y="-62.6" font-family="Times,serif" font-size="14.00">MapModule</text>
</g>
<!-- MapModule&#45;&gt;StopsModule -->
<g id="edge4" class="edge">
<title>MapModule&#45;&gt;StopsModule</title>
<path fill="none" stroke="black" d="M787,-85.08C787,-106.12 787,-137.8 787,-137.8 787,-137.8 516.33,-137.8 516.33,-137.8"/>
<polygon fill="black" stroke="black" points="516.33,-134.3 506.33,-137.8 516.33,-141.3 516.33,-134.3"/>
</g>
<!-- SharedModule -->
<g id="node6" class="node">
<title>SharedModule</title>
<polygon fill="#8dd3c7" stroke="black" points="726.43,-84.8 723.43,-88.8 702.43,-88.8 699.43,-84.8 627.57,-84.8 627.57,-48.8 726.43,-48.8 726.43,-84.8"/>
<text text-anchor="middle" x="677" y="-62.6" font-family="Times,serif" font-size="14.00">SharedModule</text>
</g>
<!-- SharedModule&#45;&gt;StopsModule -->
<g id="edge5" class="edge">
<title>SharedModule&#45;&gt;StopsModule</title>
<path fill="none" stroke="black" d="M677,-84.82C677,-102.17 677,-125.8 677,-125.8 677,-125.8 516.28,-125.8 516.28,-125.8"/>
<polygon fill="black" stroke="black" points="516.28,-122.3 506.28,-125.8 516.28,-129.3 516.28,-122.3"/>
</g>
<!-- StopsRoutingModule -->
<g id="node7" class="node">
<title>StopsRoutingModule</title>
<polygon fill="#8dd3c7" stroke="black" points="609.79,-84.8 606.79,-88.8 585.79,-88.8 582.79,-84.8 474.21,-84.8 474.21,-48.8 609.79,-48.8 609.79,-84.8"/>
<text text-anchor="middle" x="542" y="-62.6" font-family="Times,serif" font-size="14.00">StopsRoutingModule</text>
</g>
<!-- StopsRoutingModule&#45;&gt;StopsModule -->
<g id="edge6" class="edge">
<title>StopsRoutingModule&#45;&gt;StopsModule</title>
<path fill="none" stroke="black" d="M490.22,-84.91C490.22,-84.91 490.22,-103.79 490.22,-103.79"/>
<polygon fill="black" stroke="black" points="486.72,-103.79 490.22,-113.79 493.72,-103.79 486.72,-103.79"/>
</g>
</g>
</svg>
