<?xml version="1.0" encoding="UTF-8" standalone="no"?>
<!DOCTYPE svg PUBLIC "-//W3C//DTD SVG 1.1//EN"
 "http://www.w3.org/Graphics/SVG/1.1/DTD/svg11.dtd">
<!-- Generated by graphviz version 5.0.0 (20220707.1540)
 -->
<!-- Title: dependencies Pages: 1 -->
<svg width="844pt" height="247pt"
 viewBox="0.00 0.00 844.00 246.80" xmlns="http://www.w3.org/2000/svg" xmlns:xlink="http://www.w3.org/1999/xlink">
<g id="graph0" class="graph" transform="scale(1 1) rotate(0) translate(4 242.8)">
<title>dependencies</title>
<polygon fill="white" stroke="transparent" points="-4,4 -4,-242.8 840,-242.8 840,4 -4,4"/>
<text text-anchor="middle" x="418" y="-8.2" font-family="sans-serif" font-size="14.00">dependencies</text>
<g id="clust1" class="cluster">
<title>cluster_SidebarModule</title>
<polygon fill="none" stroke="black" stroke-dasharray="1,5" points="8,-32.8 8,-230.8 828,-230.8 828,-32.8 8,-32.8"/>
</g>
<g id="clust2" class="cluster">
<title>cluster_SidebarModule_declarations</title>
<polygon fill="none" stroke="black" points="488,-40.8 488,-92.8 820,-92.8 820,-40.8 488,-40.8"/>
</g>
<g id="clust6" class="cluster">
<title>cluster_SidebarModule_exports</title>
<polygon fill="none" stroke="black" points="348,-170.8 348,-222.8 498,-222.8 498,-170.8 348,-170.8"/>
</g>
<g id="clust5" class="cluster">
<title>cluster_SidebarModule_imports</title>
<polygon fill="none" stroke="black" points="200,-40.8 200,-92.8 480,-92.8 480,-40.8 200,-40.8"/>
</g>
<g id="clust8" class="cluster">
<title>cluster_SidebarModule_providers</title>
<polygon fill="none" stroke="black" points="16,-40.8 16,-92.8 192,-92.8 192,-40.8 16,-40.8"/>
</g>
<!-- SideNavComponent -->
<g id="node1" class="node">
<title>SideNavComponent</title>
<polygon fill="#ffffb3" stroke="black" points="811.55,-84.8 682.45,-84.8 682.45,-48.8 811.55,-48.8 811.55,-84.8"/>
<text text-anchor="middle" x="747" y="-62.6" font-family="Times,serif" font-size="14.00">SideNavComponent</text>
</g>
<!-- SidebarModule -->
<g id="node3" class="node">
<title>SidebarModule</title>
<polygon fill="#8dd3c7" stroke="black" points="474.32,-149.8 471.32,-153.8 450.32,-153.8 447.32,-149.8 371.68,-149.8 371.68,-113.8 474.32,-113.8 474.32,-149.8"/>
<text text-anchor="middle" x="423" y="-127.6" font-family="Times,serif" font-size="14.00">SidebarModule</text>
</g>
<!-- SideNavComponent&#45;&gt;SidebarModule -->
<g id="edge1" class="edge">
<title>SideNavComponent&#45;&gt;SidebarModule</title>
<path fill="none" stroke="black" d="M747,-85.08C747,-106.12 747,-137.8 747,-137.8 747,-137.8 484.34,-137.8 484.34,-137.8"/>
<polygon fill="black" stroke="black" points="484.34,-134.3 474.34,-137.8 484.34,-141.3 484.34,-134.3"/>
</g>
<!-- SidebarOptionsComponent -->
<g id="node2" class="node">
<title>SidebarOptionsComponent</title>
<polygon fill="#ffffb3" stroke="black" points="664.44,-84.8 495.56,-84.8 495.56,-48.8 664.44,-48.8 664.44,-84.8"/>
<text text-anchor="middle" x="580" y="-62.6" font-family="Times,serif" font-size="14.00">SidebarOptionsComponent</text>
</g>
<!-- SidebarOptionsComponent&#45;&gt;SidebarModule -->
<g id="edge2" class="edge">
<title>SidebarOptionsComponent&#45;&gt;SidebarModule</title>
<path fill="none" stroke="black" d="M580,-84.82C580,-102.17 580,-125.8 580,-125.8 580,-125.8 484.41,-125.8 484.41,-125.8"/>
<polygon fill="black" stroke="black" points="484.41,-122.3 474.41,-125.8 484.41,-129.3 484.41,-122.3"/>
</g>
<!-- SideNavComponent  -->
<g id="node6" class="node">
<title>SideNavComponent </title>
<polygon fill="#fb8072" stroke="black" points="489.54,-214.8 356.46,-214.8 356.46,-178.8 489.54,-178.8 489.54,-214.8"/>
<text text-anchor="middle" x="423" y="-192.6" font-family="Times,serif" font-size="14.00">SideNavComponent </text>
</g>
<!-- SidebarModule&#45;&gt;SideNavComponent  -->
<g id="edge5" class="edge">
<title>SidebarModule&#45;&gt;SideNavComponent </title>
<path fill="none" stroke="black" stroke-dasharray="5,2" d="M423,-149.91C423,-149.91 423,-168.79 423,-168.79"/>
<polygon fill="black" stroke="black" points="419.5,-168.79 423,-178.79 426.5,-168.79 419.5,-168.79"/>
</g>
<!-- SharedModule -->
<g id="node4" class="node">
<title>SharedModule</title>
<polygon fill="#8dd3c7" stroke="black" points="472.43,-84.8 469.43,-88.8 448.43,-88.8 445.43,-84.8 373.57,-84.8 373.57,-48.8 472.43,-48.8 472.43,-84.8"/>
<text text-anchor="middle" x="423" y="-62.6" font-family="Times,serif" font-size="14.00">SharedModule</text>
</g>
<!-- SharedModule&#45;&gt;SidebarModule -->
<g id="edge3" class="edge">
<title>SharedModule&#45;&gt;SidebarModule</title>
<path fill="none" stroke="black" d="M423,-84.91C423,-84.91 423,-103.79 423,-103.79"/>
<polygon fill="black" stroke="black" points="419.5,-103.79 423,-113.79 426.5,-103.79 419.5,-103.79"/>
</g>
<!-- SidebarRoutingModule -->
<g id="node5" class="node">
<title>SidebarRoutingModule</title>
<polygon fill="#8dd3c7" stroke="black" points="355.94,-84.8 352.94,-88.8 331.94,-88.8 328.94,-84.8 208.06,-84.8 208.06,-48.8 355.94,-48.8 355.94,-84.8"/>
<text text-anchor="middle" x="282" y="-62.6" font-family="Times,serif" font-size="14.00">SidebarRoutingModule</text>
</g>
<!-- SidebarRoutingModule&#45;&gt;SidebarModule -->
<g id="edge4" class="edge">
<title>SidebarRoutingModule&#45;&gt;SidebarModule</title>
<path fill="none" stroke="black" d="M282,-84.82C282,-102.17 282,-125.8 282,-125.8 282,-125.8 361.7,-125.8 361.7,-125.8"/>
<polygon fill="black" stroke="black" points="361.7,-129.3 371.7,-125.8 361.7,-122.3 361.7,-129.3"/>
</g>
<!-- DataShareService -->
<g id="node7" class="node">
<title>DataShareService</title>
<ellipse fill="#fdb462" stroke="black" cx="104" cy="-66.8" rx="80.42" ry="18"/>
<text text-anchor="middle" x="104" y="-62.6" font-family="Times,serif" font-size="14.00">DataShareService</text>
</g>
<!-- DataShareService&#45;&gt;SidebarModule -->
<g id="edge6" class="edge">
<title>DataShareService&#45;&gt;SidebarModule</title>
<path fill="none" stroke="black" d="M104,-85.08C104,-106.12 104,-137.8 104,-137.8 104,-137.8 361.75,-137.8 361.75,-137.8"/>
<polygon fill="black" stroke="black" points="361.75,-141.3 371.75,-137.8 361.75,-134.3 361.75,-141.3"/>
</g>
</g>
</svg>
